<svg width="108" height="187" viewBox="0 0 108 187" fill="none" xmlns="http://www.w3.org/2000/svg">
<path fill-rule="evenodd" clip-rule="evenodd" d="M79.3547 27.1666C81.5744 24.777 83.0767 21.8485 82.8257 18.567C82.1024 9.11223 67.7523 11.1922 64.9609 15.9642C62.1695 20.7361 62.5012 32.8407 66.1088 33.6935C67.5476 34.0337 70.6124 33.2005 73.7318 31.4761L71.7738 44.1804H83.3347L79.3547 27.1666Z" fill="#915B3C"/>
<path fill-rule="evenodd" clip-rule="evenodd" d="M69.5274 10.7668C71.1071 10.325 73.4003 10.1751 74.365 10.2765C73.8162 9.07061 73.5985 7.72713 73.776 6.41901C73.9486 5.14793 74.5678 4.06564 75.1405 2.93154C75.4045 2.40879 75.7037 1.88889 76.1498 1.48905C76.6042 1.08169 77.1793 0.812799 77.7825 0.684516C78.3997 0.553206 79.0451 0.564139 79.6633 0.683305C79.9368 0.736015 80.1822 0.850693 80.4504 0.914443C80.725 0.97976 80.8583 0.822095 81.0576 0.663646C81.538 0.281859 82.2423 0.0933878 82.8501 0.0259341C83.532 -0.049711 84.2396 0.0446317 84.89 0.250234C85.523 0.450387 86.1311 0.775404 86.5888 1.2489C86.7926 1.45966 86.9775 1.69956 87.0977 1.96443C87.147 2.07312 87.1552 2.13751 87.2735 2.17733C87.3828 2.21419 87.5108 2.21526 87.6236 2.25034C88.7151 2.58939 89.6483 3.36286 90.1564 4.35597C90.4528 4.93535 90.5933 5.95542 90.5548 7.09876C90.5163 8.2421 89.3907 11.2254 88.338 12.3136C87.3982 13.2848 86.017 13.9258 84.6839 14.2064C85.5687 15.1339 86.1577 16.293 86.5933 17.4719C87.0664 18.7524 87.3592 20.0829 87.4673 21.4386C87.57 22.7266 87.5795 24.0887 87.2503 25.3493C86.9423 26.5281 86.2836 27.4951 85.1841 28.1086C84.6804 28.3896 84.1385 28.6007 83.5935 28.7937C83.0564 28.9839 82.5176 29.1687 81.955 29.2754C80.8901 29.4773 79.6631 29.4426 78.8428 28.6652C78.5472 28.385 78.2221 28.0328 78.0064 27.6905C77.9288 27.5674 77.8821 27.4868 77.9763 27.3665C78.0892 27.2224 78.2717 27.1119 78.4167 26.9992C79.2436 26.3563 79.7554 25.4981 79.8845 24.4781C80.0154 23.4433 79.7123 22.1076 78.6153 21.6559C77.2612 21.0984 75.7699 21.7383 74.5663 22.3349C74.0548 20.6791 73.0046 19.1882 71.3579 18.4287C69.5362 17.5884 67.4458 17.4901 65.5737 16.7692C65.0859 16.5813 64.589 16.368 64.2298 15.9853C64.0798 15.8253 63.9037 15.6178 63.8438 15.4062C63.765 15.1282 63.9605 14.8952 64.1114 14.6785C64.9119 13.5296 67.9477 11.2086 69.5274 10.7668Z" fill="#181824"/>
<path fill-rule="evenodd" clip-rule="evenodd" d="M86.2249 80.8502L50.4312 135.734L23.5963 182.134H17.8163L62.7786 80.8502L86.2249 80.8502Z" fill="#784931"/>
<path fill-rule="evenodd" clip-rule="evenodd" d="M27.1304 179.992C27.6693 181.311 27.9388 182.298 27.9388 182.954C27.9388 183.75 27.7941 184.913 27.5046 186.441C26.497 186.441 17.4406 186.441 0.335686 186.441C-0.37034 184.301 0.0372181 183.145 1.55836 182.974C3.0795 182.803 4.34314 182.649 5.34928 182.512L17.9772 177.348C18.2201 177.249 18.5049 177.349 18.6133 177.572C18.6151 177.576 18.6169 177.58 18.6186 177.584L19.4303 179.39C20.8385 179.992 21.9828 180.293 22.8632 180.293C23.5785 180.293 24.5664 180.028 25.8268 179.499L25.8268 179.499C26.3104 179.295 26.8823 179.49 27.104 179.934C27.1136 179.953 27.1224 179.972 27.1304 179.992Z" fill="#E4E4E4"/>
<path fill-rule="evenodd" clip-rule="evenodd" d="M31.0492 174.704L19.9025 171.611C24.7862 158.221 30.7718 143.486 37.8593 127.405C44.9469 111.324 52.5587 95.806 60.6947 80.8502H92.1769C83.1314 99.7687 73.542 116.959 63.4086 132.42C53.2752 147.881 42.4888 161.976 31.0492 174.704Z" fill="#DB2721"/>
<path fill-rule="evenodd" clip-rule="evenodd" d="M88.5773 80.8502C91.9555 100.137 98.4712 124.778 99.0861 125.538C99.4961 126.045 114.254 130.581 143.36 139.145L142.111 143.82C107.403 139.227 89.1141 135.663 87.2458 133.129C84.4432 129.328 70.4499 99.3013 65.03 80.8502H88.5773Z" fill="#915B3C"/>
<path fill-rule="evenodd" clip-rule="evenodd" d="M133.129 135.104L130.929 142.633C104.969 144.721 89.0631 143.212 83.2105 138.106C77.358 133 70.6878 113.915 63.2 80.8502H93.2202C97.9643 107.926 100.617 122.032 101.177 123.168C101.737 124.305 112.388 128.283 133.129 135.104Z" fill="#FF4133"/>
<path fill-rule="evenodd" clip-rule="evenodd" d="M61.8324 53.3258L45.1126 44.927C42.3322 41.8987 39.5927 39.5468 36.8941 37.8714C36.0696 37.5556 34.6276 37.3645 35.9761 39.5598C37.3246 41.7551 38.6355 44.1198 37.9484 44.7961C37.2614 45.4724 35.5482 44.5276 34.7286 45.6513C34.1822 46.4005 37.109 47.5839 43.509 49.2016L55.658 59.4039L61.8324 53.3258ZM35.646 60.4122L28.3017 56.7118C27.2712 53.1154 26.0394 51.3059 24.6062 51.2834C23.5052 50.8135 25.4226 55.3579 23.3354 54.9638C21.2483 54.5698 16.1542 51.0949 15.2765 51.8005C13.978 52.8442 15.1358 56.0492 16.5001 57.6435C19.0498 60.6233 21.1609 61.6423 26.3788 62.9767C29.107 63.6743 32.0567 65.0728 35.2278 67.172L35.646 60.4122Z" fill="#915B3C"/>
<path fill-rule="evenodd" clip-rule="evenodd" d="M69.9752 51.4549C64.1188 51.3981 56.3093 50.2637 47.9765 45.4125L44.7041 52.1058C50.4518 57.3375 58.5337 61.6359 65.6003 61.4539C71.1692 61.3105 74.0154 55.1323 69.9752 51.4549Z" fill="#1F7DD4"/>
<path fill-rule="evenodd" clip-rule="evenodd" d="M62.0896 62.1889C55.8723 63.611 45.4464 61.9339 30.8118 57.1577C27.1818 64.0455 25.5037 68.9559 25.7776 71.8891C38.332 77.9038 49.0921 80.5854 57.9571 80.7625C57.6754 85.5869 58.3156 90.1775 60.4664 94.372C64.8881 102.995 90.7795 95.0092 99.485 96.581C104.937 80.3427 94.3957 73.7435 94.3872 63.3532C94.3779 51.9748 84.4165 34.4607 82.9509 34.4607H69.5852C68.8477 43.1506 65.1358 52.7276 62.0896 62.1889Z" fill="#478FE6"/>
</svg>
