<svg width="24" height="24" viewBox="0 0 24 24" fill="none" xmlns="http://www.w3.org/2000/svg">
<path d="M11.4496 3.7377H4.5994C4.08032 3.7377 3.5825 3.94496 3.21546 4.31388C2.84841 4.68281 2.64221 5.18318 2.64221 5.70491V19.4754C2.64221 19.9971 2.84841 20.4975 3.21546 20.8664C3.5825 21.2354 4.08032 21.4426 4.5994 21.4426H18.2997C18.8188 21.4426 19.3166 21.2354 19.6836 20.8664C20.0507 20.4975 20.2569 19.9971 20.2569 19.4754V12.5902" stroke="#212121" stroke-width="2" stroke-linecap="round" stroke-linejoin="round"/>
<path d="M18.574 2.5558C18.9524 2.17894 19.4656 1.96722 20.0007 1.96722C20.5358 1.96722 21.049 2.17894 21.4274 2.5558C21.8058 2.93265 22.0184 3.44378 22.0184 3.97674C22.0184 4.5097 21.8058 5.02082 21.4274 5.39768L12.3917 14.397L8.58716 15.3443L9.53829 11.5551L18.574 2.5558Z" stroke="#212121" stroke-width="2" stroke-linecap="round" stroke-linejoin="round"/>
</svg>
