<svg width="26" height="26" viewBox="0 0 26 26" fill="none" xmlns="http://www.w3.org/2000/svg">
<path d="M12.4037 4.04919H4.98265C4.42032 4.04919 3.88101 4.27373 3.48338 4.67339C3.08575 5.07306 2.86237 5.61513 2.86237 6.18034V21.0984C2.86237 21.6636 3.08575 22.2057 3.48338 22.6053C3.88101 23.005 4.42032 23.2295 4.98265 23.2295H19.8246C20.387 23.2295 20.9263 23.005 21.3239 22.6053C21.7215 22.2057 21.9449 21.6636 21.9449 21.0984V13.6394" stroke="#212121" stroke-width="2" stroke-linecap="round" stroke-linejoin="round"/>
<path d="M20.1218 2.76876C20.5317 2.36049 21.0877 2.13113 21.6674 2.13113C22.2471 2.13113 22.8031 2.36049 23.213 2.76876C23.6229 3.17702 23.8532 3.73074 23.8532 4.30811C23.8532 4.88548 23.6229 5.4392 23.213 5.84746L13.4243 15.5967L9.30273 16.6229L10.3331 12.518L20.1218 2.76876Z" stroke="#212121" stroke-width="2" stroke-linecap="round" stroke-linejoin="round"/>
</svg>
