<svg width="20" height="13" viewBox="0 0 20 13" fill="none" xmlns="http://www.w3.org/2000/svg">
<path fill-rule="evenodd" clip-rule="evenodd" d="M18.8039 0.499878H17.6372C16.9929 0.499878 16.4706 1.00356 16.4706 1.62488V11.3749C16.4706 11.9962 16.9929 12.4999 17.6372 12.4999H18.8039C19.4482 12.4999 19.9706 11.9962 19.9706 11.3749V1.62488C19.9706 1.00356 19.4482 0.499878 18.8039 0.499878ZM12.147 3.12501H13.3137C13.958 3.12501 14.4804 3.62869 14.4804 4.25001V11.375C14.4804 11.9963 13.958 12.5 13.3137 12.5H12.147C11.5027 12.5 10.9804 11.9963 10.9804 11.375V4.25001C10.9804 3.62869 11.5027 3.12501 12.147 3.12501ZM7.82351 5.7498H6.65685C6.01252 5.7498 5.49018 6.25348 5.49018 6.8748V11.3748C5.49018 11.9961 6.01252 12.4998 6.65685 12.4998H7.82351C8.46785 12.4998 8.99018 11.9961 8.99018 11.3748V6.8748C8.99018 6.25348 8.46785 5.7498 7.82351 5.7498ZM2.33332 7.99976H1.16665C0.522319 7.99976 -1.52588e-05 8.50344 -1.52588e-05 9.12476V11.3748C-1.52588e-05 11.9961 0.522319 12.4998 1.16665 12.4998H2.33332C2.97765 12.4998 3.49998 11.9961 3.49998 11.3748V9.12476C3.49998 8.50344 2.97765 7.99976 2.33332 7.99976Z" fill="black"/>
</svg>
