<svg width="20" height="13" viewBox="0 0 20 13" fill="none" xmlns="http://www.w3.org/2000/svg">
<path fill-rule="evenodd" clip-rule="evenodd" d="M18.8039 0.499939H17.6372C16.9929 0.499939 16.4706 1.00362 16.4706 1.62494V11.3749C16.4706 11.9963 16.9929 12.4999 17.6372 12.4999H18.8039C19.4482 12.4999 19.9706 11.9963 19.9706 11.3749V1.62494C19.9706 1.00362 19.4482 0.499939 18.8039 0.499939ZM12.147 3.12507H13.3137C13.958 3.12507 14.4804 3.62875 14.4804 4.25007V11.3751C14.4804 11.9964 13.958 12.5001 13.3137 12.5001H12.147C11.5027 12.5001 10.9804 11.9964 10.9804 11.3751V4.25007C10.9804 3.62875 11.5027 3.12507 12.147 3.12507ZM7.82351 5.74986H6.65685C6.01252 5.74986 5.49018 6.25354 5.49018 6.87486V11.3749C5.49018 11.9962 6.01252 12.4999 6.65685 12.4999H7.82351C8.46785 12.4999 8.99018 11.9962 8.99018 11.3749V6.87486C8.99018 6.25354 8.46785 5.74986 7.82351 5.74986ZM2.33332 7.99982H1.16665C0.522319 7.99982 -1.52588e-05 8.5035 -1.52588e-05 9.12482V11.3748C-1.52588e-05 11.9961 0.522319 12.4998 1.16665 12.4998H2.33332C2.97765 12.4998 3.49998 11.9961 3.49998 11.3748V9.12482C3.49998 8.5035 2.97765 7.99982 2.33332 7.99982Z" fill="black"/>
</svg>
