<svg width="21" height="18" viewBox="0 0 21 18" fill="none" xmlns="http://www.w3.org/2000/svg">
<path d="M18.9434 8.11706V3.5377C18.9423 2.59985 18.5693 1.70072 17.9061 1.03756C17.2429 0.374401 16.3438 0.00135043 15.406 0.000244141H11.6919C11.5877 0.000244141 11.4877 0.0416431 11.414 0.115333C11.3404 0.189022 11.299 0.288965 11.299 0.393178C11.299 0.497391 11.3404 0.597336 11.414 0.671026C11.4877 0.744715 11.5877 0.786114 11.6919 0.786114H15.406C16.1355 0.786944 16.8349 1.07711 17.3507 1.59295C17.8666 2.10879 18.1567 2.80819 18.1575 3.5377V7.70427C17.8549 7.60003 17.5371 7.54671 17.217 7.54647H17.1386V5.29232C17.1381 4.8895 16.9778 4.50333 16.693 4.21849C16.4081 3.93365 16.022 3.77339 15.6191 3.77283H11.1882C10.9758 3.77273 10.7658 3.81724 10.5717 3.90347C10.3777 3.9897 10.2039 4.11574 10.0616 4.27341C9.91938 4.11574 9.74559 3.9897 9.55152 3.90347C9.35746 3.81724 9.14744 3.77273 8.93508 3.77283H4.50621C4.10338 3.77339 3.71722 3.93365 3.43238 4.21849C3.14754 4.50333 2.98727 4.8895 2.98672 5.29232V7.54542H2.90834C2.58826 7.54566 2.27044 7.59898 1.96781 7.70322V3.5377C1.96864 2.80819 2.2588 2.10879 2.77465 1.59295C3.29049 1.07711 3.98988 0.786944 4.71939 0.786114H8.50871C8.61292 0.786114 8.71286 0.744715 8.78655 0.671026C8.86024 0.597336 8.90164 0.497391 8.90164 0.393178C8.90164 0.288965 8.86024 0.189022 8.78655 0.115333C8.71286 0.0416431 8.61292 0.000244141 8.50871 0.000244141H4.71626C3.77841 0.00135043 2.87928 0.374401 2.21612 1.03756C1.55296 1.70072 1.17991 2.59985 1.1788 3.5377V8.11811C0.813414 8.38818 0.516436 8.74016 0.311715 9.14579C0.106993 9.55142 0.000231227 9.9994 0 10.4538L0 15.4846C0 15.5888 0.0413983 15.6887 0.115088 15.7624C0.188777 15.8361 0.288722 15.8775 0.392935 15.8775H1.1788V17.6071C1.1788 17.7113 1.2202 17.8112 1.29389 17.8849C1.36758 17.9586 1.46753 18 1.57174 18H3.69526C3.79947 18 3.89941 17.9586 3.9731 17.8849C4.04679 17.8112 4.08819 17.7113 4.08819 17.6071V15.8775H16.034V17.6071C16.034 17.7113 16.0754 17.8112 16.1491 17.8849C16.2228 17.9586 16.3228 18 16.427 18H18.5494C18.6537 18 18.7536 17.9586 18.8273 17.8849C18.901 17.8112 18.9424 17.7113 18.9424 17.6071V15.8775H19.7282C19.8325 15.8775 19.9324 15.8361 20.0061 15.7624C20.0798 15.6887 20.1212 15.5888 20.1212 15.4846V10.4538C20.1212 9.99931 20.0147 9.55118 19.8102 9.14536C19.6056 8.73954 19.3088 8.38734 18.9434 8.11706ZM10.4504 5.29232C10.4504 5.09831 10.5275 4.91224 10.6646 4.77505C10.8018 4.63786 10.9879 4.56079 11.1819 4.56079H15.6097C15.8038 4.56079 15.9898 4.63786 16.127 4.77505C16.2642 4.91224 16.3413 5.09831 16.3413 5.29232V7.54542H10.4504V5.29232ZM3.76945 5.29232C3.76945 5.09831 3.84653 4.91224 3.98371 4.77505C4.1209 4.63786 4.30697 4.56079 4.50098 4.56079H8.93404C9.12805 4.56079 9.31412 4.63786 9.4513 4.77505C9.58849 4.91224 9.66556 5.09831 9.66556 5.29232V7.54542H3.77259L3.76945 5.29232ZM3.30128 17.2141H1.96467V15.8775H3.30128V17.2141ZM18.1565 17.2141H16.8251V15.8775H18.1617L18.1565 17.2141ZM19.3332 13.2054H3.6127C3.50849 13.2054 3.40854 13.2467 3.33485 13.3204C3.26116 13.3941 3.21976 13.4941 3.21976 13.5983C3.21976 13.7025 3.26116 13.8024 3.33485 13.8761C3.40854 13.9498 3.50849 13.9912 3.6127 13.9912H19.3332V15.0916H0.785869V10.4538C0.786422 9.89102 1.01022 9.35148 1.40814 8.95356C1.80606 8.55564 2.3456 8.33185 2.90834 8.33129H17.2139C17.7761 8.33267 18.3148 8.55683 18.7121 8.95467C19.1093 9.3525 19.3327 9.89156 19.3332 10.4538V13.2054Z" fill="#478FE6"/>
</svg>
