<svg width="31" height="31" viewBox="0 0 31 31" fill="none" xmlns="http://www.w3.org/2000/svg">
<circle cx="15.5" cy="15.5" r="15.5" fill="#478FE6" fill-opacity="0.8"/>
<path d="M15.5412 8.11475H9.83277C9.40021 8.11475 8.98536 8.28746 8.67949 8.5949C8.37362 8.90234 8.20178 9.31931 8.20178 9.75409V21.2295C8.20178 21.6643 8.37362 22.0813 8.67949 22.3887C8.98536 22.6961 9.40021 22.8688 9.83277 22.8688H21.2497C21.6823 22.8688 22.0971 22.6961 22.403 22.3887C22.7088 22.0813 22.8807 21.6643 22.8807 21.2295V15.4918" stroke="white" stroke-width="2" stroke-linecap="round" stroke-linejoin="round"/>
<path d="M21.4784 7.12982C21.7937 6.81577 22.2214 6.63934 22.6673 6.63934C23.1132 6.63934 23.5409 6.81577 23.8562 7.12982C24.1715 7.44387 24.3487 7.86981 24.3487 8.31394C24.3487 8.75807 24.1715 9.18401 23.8562 9.49806L16.3264 16.9975L13.156 17.7869L13.9486 14.6292L21.4784 7.12982Z" stroke="white" stroke-width="2" stroke-linecap="round" stroke-linejoin="round"/>
</svg>
