<svg width="218" height="58" viewBox="0 0 218 58" fill="none" xmlns="http://www.w3.org/2000/svg">
<rect width="217.82" height="58" rx="12" fill="#478FE6"/>
<path d="M15.4665 25.7777L27.0664 16.7555L38.6663 25.7777V39.9555C38.6663 40.6392 38.3947 41.2948 37.9113 41.7783C37.4279 42.2617 36.7722 42.5333 36.0885 42.5333H18.0443C17.3606 42.5333 16.705 42.2617 16.2215 41.7783C15.7381 41.2948 15.4665 40.6392 15.4665 39.9555V25.7777Z" stroke="white" stroke-width="2" stroke-linecap="round" stroke-linejoin="round"/>
<path d="M23.1998 42.5333V29.6444H30.933V42.5333" stroke="white" stroke-width="2" stroke-linecap="round" stroke-linejoin="round"/>
<g clip-path="url(#clip0_59_185)">
<path d="M115.999 41.2444V38.6667C115.999 37.2993 115.456 35.988 114.489 35.0211C113.522 34.0543 112.211 33.5111 110.843 33.5111H100.532C99.165 33.5111 97.8537 34.0543 96.8868 35.0211C95.92 35.988 95.3768 37.2993 95.3768 38.6667V41.2444" stroke="white" stroke-width="2" stroke-linecap="round" stroke-linejoin="round"/>
<path d="M105.688 28.3555C108.535 28.3555 110.843 26.0473 110.843 23.2C110.843 20.3527 108.535 18.0444 105.688 18.0444C102.84 18.0444 100.532 20.3527 100.532 23.2C100.532 26.0473 102.84 28.3555 105.688 28.3555Z" stroke="white" stroke-width="2" stroke-linecap="round" stroke-linejoin="round"/>
<path d="M123.732 41.2444V38.6666C123.731 37.5243 123.351 36.4146 122.651 35.5118C121.951 34.609 120.971 33.9642 119.865 33.6786" stroke="white" stroke-width="2" stroke-linecap="round" stroke-linejoin="round"/>
<path d="M114.71 18.2119C115.819 18.4959 116.802 19.1408 117.504 20.0451C118.206 20.9494 118.587 22.0616 118.587 23.2064C118.587 24.3511 118.206 25.4633 117.504 26.3676C116.802 27.2719 115.819 27.9169 114.71 28.2008" stroke="white" stroke-width="2" stroke-linecap="round" stroke-linejoin="round"/>
</g>
<path d="M202.354 33.5111C202.354 34.1948 202.082 34.8504 201.599 35.3339C201.115 35.8173 200.459 36.0889 199.776 36.0889H184.309L179.154 41.2444V20.6222C179.154 19.9385 179.425 19.2829 179.909 18.7994C180.392 18.316 181.048 18.0444 181.731 18.0444H199.776C200.459 18.0444 201.115 18.316 201.599 18.7994C202.082 19.2829 202.354 19.9385 202.354 20.6222V33.5111Z" stroke="white" stroke-width="2" stroke-linecap="round" stroke-linejoin="round"/>
<defs>
<clipPath id="clip0_59_185">
<rect width="30.933" height="30.9333" fill="white" transform="translate(94.0879 14.1777)"/>
</clipPath>
</defs>
</svg>
