<svg width="218" height="58" viewBox="0 0 218 58" fill="none" xmlns="http://www.w3.org/2000/svg">
<rect width="217.822" height="58" rx="12" fill="#478FE6"/>
<path d="M15.4667 25.7777L27.0667 16.7555L38.6667 25.7777V39.9555C38.6667 40.6392 38.3951 41.2948 37.9117 41.7783C37.4282 42.2617 36.7726 42.5333 36.0889 42.5333H18.0444C17.3608 42.5333 16.7051 42.2617 16.2217 41.7783C15.7383 41.2948 15.4667 40.6392 15.4667 39.9555V25.7777Z" stroke="white" stroke-width="2" stroke-linecap="round" stroke-linejoin="round"/>
<path d="M23.2 42.5333V29.6444H30.9333V42.5333" stroke="white" stroke-width="2" stroke-linecap="round" stroke-linejoin="round"/>
<g clip-path="url(#clip0_12_113)">
<path d="M116 41.2444V38.6667C116 37.2993 115.457 35.988 114.49 35.0211C113.523 34.0543 112.212 33.5111 110.844 33.5111H100.533C99.166 33.5111 97.8547 34.0543 96.8878 35.0211C95.921 35.988 95.3778 37.2993 95.3778 38.6667V41.2444" stroke="white" stroke-width="2" stroke-linecap="round" stroke-linejoin="round"/>
<path d="M105.689 28.3555C108.536 28.3555 110.844 26.0473 110.844 23.2C110.844 20.3527 108.536 18.0444 105.689 18.0444C102.842 18.0444 100.533 20.3527 100.533 23.2C100.533 26.0473 102.842 28.3555 105.689 28.3555Z" stroke="white" stroke-width="2" stroke-linecap="round" stroke-linejoin="round"/>
<path d="M123.733 41.2444V38.6666C123.732 37.5243 123.352 36.4146 122.652 35.5118C121.953 34.609 120.973 33.9642 119.867 33.6786" stroke="white" stroke-width="2" stroke-linecap="round" stroke-linejoin="round"/>
<path d="M114.711 18.2119C115.82 18.4959 116.803 19.1408 117.505 20.0451C118.207 20.9494 118.588 22.0616 118.588 23.2064C118.588 24.3511 118.207 25.4633 117.505 26.3676C116.803 27.2719 115.82 27.9169 114.711 28.2008" stroke="white" stroke-width="2" stroke-linecap="round" stroke-linejoin="round"/>
</g>
<path d="M202.356 33.5111C202.356 34.1948 202.084 34.8504 201.601 35.3339C201.117 35.8173 200.461 36.0889 199.778 36.0889H184.311L179.156 41.2444V20.6222C179.156 19.9385 179.427 19.2829 179.911 18.7994C180.394 18.316 181.05 18.0444 181.733 18.0444H199.778C200.461 18.0444 201.117 18.316 201.601 18.7994C202.084 19.2829 202.356 19.9385 202.356 20.6222V33.5111Z" stroke="white" stroke-width="2" stroke-linecap="round" stroke-linejoin="round"/>
<defs>
<clipPath id="clip0_12_113">
<rect width="30.9333" height="30.9333" fill="white" transform="translate(94.0889 14.1777)"/>
</clipPath>
</defs>
</svg>
