<svg width="44" height="44" viewBox="0 0 44 44" fill="none" xmlns="http://www.w3.org/2000/svg">
<circle cx="22" cy="22" r="22" fill="#478FE6"/>
<path d="M25.05 15C26.0267 15.1906 26.9244 15.6683 27.6281 16.3719C28.3317 17.0756 28.8094 17.9733 29 18.95M25.05 11C27.0793 11.2254 28.9716 12.1342 30.4162 13.577C31.8609 15.0198 32.772 16.911 33 18.94M32 26.92V29.92C32.0011 30.1985 31.9441 30.4742 31.8325 30.7293C31.7209 30.9845 31.5573 31.2136 31.3521 31.4019C31.1468 31.5901 30.9046 31.7335 30.6407 31.8227C30.3769 31.9119 30.0974 31.9451 29.82 31.92C26.7428 31.5856 23.787 30.5341 21.19 28.85C18.7738 27.3147 16.7253 25.2662 15.19 22.85C13.5 20.2412 12.4482 17.271 12.12 14.18C12.095 13.9035 12.1279 13.6248 12.2165 13.3616C12.3051 13.0985 12.4476 12.8567 12.6348 12.6516C12.822 12.4466 13.0498 12.2827 13.3038 12.1705C13.5578 12.0583 13.8323 12.0003 14.11 12H17.11C17.5953 11.9952 18.0658 12.1671 18.4338 12.4835C18.8017 12.8 19.0421 13.2394 19.11 13.72C19.2366 14.6801 19.4714 15.6227 19.81 16.53C19.9445 16.8879 19.9737 17.2769 19.8939 17.6509C19.8141 18.0248 19.6289 18.3681 19.36 18.64L18.09 19.91C19.5135 22.4135 21.5864 24.4864 24.09 25.91L25.36 24.64C25.6319 24.3711 25.9751 24.1858 26.3491 24.1061C26.7231 24.0263 27.1121 24.0555 27.47 24.19C28.3773 24.5286 29.3199 24.7634 30.28 24.89C30.7658 24.9585 31.2094 25.2032 31.5265 25.5775C31.8437 25.9518 32.0122 26.4296 32 26.92Z" stroke="white" stroke-width="2" stroke-linecap="round" stroke-linejoin="round"/>
</svg>
