<svg width="22" height="22" viewBox="0 0 22 22" fill="none" xmlns="http://www.w3.org/2000/svg">
<path d="M14.8653 11.6871H11.6435V8.4653C11.6435 8.29437 11.5756 8.13043 11.4547 8.00956C11.3339 7.8887 11.17 7.8208 10.999 7.8208C10.8281 7.8208 10.6642 7.8887 10.5433 8.00956C10.4224 8.13043 10.3546 8.29437 10.3546 8.4653V12.3299C10.3546 12.5006 10.4224 12.6644 10.5432 12.7852C10.6639 12.9059 10.8277 12.9738 10.9984 12.9738H14.8653C15.0363 12.9738 15.2002 12.9059 15.3211 12.785C15.4419 12.6642 15.5098 12.5002 15.5098 12.3293C15.5098 12.1584 15.4419 11.9945 15.3211 11.8736C15.2002 11.7527 15.0363 11.6848 14.8653 11.6848V11.6871Z" fill="#478FE6"/>
<path d="M14.2966 1.32218C14.176 1.4431 14.1083 1.60689 14.1083 1.77765C14.1083 1.94841 14.176 2.11221 14.2966 2.23313L16.5751 4.51165L15.6919 5.39485C14.4901 4.57723 13.0951 4.08859 11.6458 3.97756V2.66432H12.2897C12.4606 2.66432 12.6246 2.59642 12.7454 2.47556C12.8663 2.35469 12.9342 2.19077 12.9342 2.01984C12.9342 1.84891 12.8663 1.68498 12.7454 1.56412C12.6246 1.44326 12.4606 1.37536 12.2897 1.37536H9.71062C9.5397 1.37536 9.37577 1.44326 9.2549 1.56412C9.13404 1.68498 9.06614 1.84891 9.06614 2.01984C9.06614 2.19077 9.13404 2.35469 9.2549 2.47556C9.37577 2.59642 9.5397 2.66432 9.71062 2.66432H10.3545V3.97756C8.90522 4.08859 7.51025 4.57723 6.30845 5.39485L5.42524 4.51165L7.70146 2.23313C7.82203 2.11221 7.88974 1.94841 7.88974 1.77765C7.88974 1.60689 7.82203 1.4431 7.70146 1.32218C6.8554 0.476125 5.70791 0.000817499 4.51141 0.000817508C3.31491 0.000817517 2.16741 0.476125 1.32136 1.32218C0.475308 2.16823 8.91462e-09 3.31573 0 4.51223C-8.91462e-09 5.70873 0.475308 6.85622 1.32136 7.70227C1.44228 7.82285 1.60607 7.89055 1.77683 7.89055C1.94759 7.89055 2.11139 7.82285 2.23231 7.70227L4.50852 5.42375L5.28883 6.20407C4.33436 7.09144 3.6003 8.18944 3.14512 9.41061C2.68994 10.6318 2.52623 11.9424 2.66702 13.238C2.80781 14.5336 3.24921 15.7784 3.95606 16.8733C4.66292 17.9682 5.61569 18.8829 6.73849 19.5446L5.38825 20.8983C5.32844 20.9581 5.28099 21.0291 5.24862 21.1073C5.21625 21.1854 5.19959 21.2692 5.19959 21.3538C5.19959 21.4383 5.21625 21.5221 5.24862 21.6003C5.28099 21.6784 5.32844 21.7494 5.38825 21.8092C5.44807 21.869 5.51907 21.9165 5.59722 21.9489C5.67537 21.9812 5.75914 21.9979 5.84373 21.9979C5.92831 21.9979 6.01208 21.9812 6.09023 21.9489C6.16838 21.9165 6.23938 21.869 6.2992 21.8092L7.96734 20.1422C9.91782 20.9 12.0814 20.9 14.0318 20.1422L15.7 21.8104C15.7598 21.8702 15.8308 21.9176 15.909 21.95C15.9871 21.9824 16.0709 21.9991 16.1555 21.9991C16.24 21.9991 16.3238 21.9824 16.402 21.95C16.4801 21.9176 16.5511 21.8702 16.6109 21.8104C16.6707 21.7506 16.7182 21.6796 16.7506 21.6014C16.7829 21.5233 16.7996 21.4395 16.7996 21.3549C16.7996 21.2703 16.7829 21.1866 16.7506 21.1084C16.7182 21.0303 16.6707 20.9593 16.6109 20.8994L15.2595 19.5446C16.3823 18.8829 17.3351 17.9682 18.042 16.8733C18.7488 15.7784 19.1902 14.5336 19.331 13.238C19.4718 11.9424 19.3081 10.6318 18.8529 9.41061C18.3977 8.18944 17.6637 7.09144 16.7092 6.20407L17.4895 5.42375L19.768 7.70227C19.889 7.82285 20.0527 7.89055 20.2235 7.89055C20.3943 7.89055 20.5581 7.82285 20.679 7.70227C21.525 6.85591 22.0002 5.70813 22 4.51141C21.9998 3.31469 21.5242 2.16708 20.6778 1.32102C19.8315 0.474969 18.6837 -0.000216713 17.487 7.41439e-08C16.2902 0.000216862 15.1426 0.475819 14.2966 1.32218ZM1.82308 6.28961C1.41364 5.66988 1.23083 4.92775 1.30557 4.18875C1.3803 3.44975 1.70799 2.75924 2.2332 2.23402C2.75842 1.7088 3.44893 1.38112 4.18793 1.30638C4.92693 1.23165 5.66906 1.41446 6.28879 1.82389L1.82308 6.28961ZM18.0895 12.3321C18.0893 13.7341 17.6733 15.1044 16.8943 16.27C16.1153 17.4356 15.0082 18.344 13.713 18.8804C12.4177 19.4167 10.9925 19.557 9.61752 19.2835C8.24255 19.0099 6.97956 18.3348 5.98825 17.3435C4.99694 16.3522 4.32183 15.0892 4.04827 13.7142C3.77472 12.3392 3.915 10.914 4.45139 9.61878C4.98777 8.32353 5.89617 7.21641 7.06173 6.4374C8.22729 5.6584 9.59767 5.24248 10.9996 5.24225C12.8792 5.2444 14.6812 5.99209 16.0101 7.32127C17.3391 8.65045 18.0865 10.4526 18.0883 12.3321H18.0895ZM20.1773 6.28961L15.7104 1.82389C16.3301 1.41446 17.0723 1.23165 17.8113 1.30638C18.5503 1.38112 19.2408 1.7088 19.766 2.23402C20.2912 2.75924 20.6189 3.44975 20.6936 4.18875C20.7683 4.92775 20.5855 5.66988 20.1761 6.28961H20.1773Z" fill="#478FE6"/>
</svg>
