<svg width="19" height="18" viewBox="0 0 19 18" fill="none" xmlns="http://www.w3.org/2000/svg">
<path fill-rule="evenodd" clip-rule="evenodd" d="M7.25968 11.4052C10.0176 11.4052 12.3749 11.8244 12.3749 13.4992C12.3749 15.1739 10.0333 15.6052 7.25968 15.6052C4.50097 15.6052 2.14447 15.1897 2.14447 13.5142C2.14447 11.8387 4.48527 11.4052 7.25968 11.4052Z" stroke="#7B6F72" stroke-width="1.2" stroke-linecap="round" stroke-linejoin="round"/>
<path fill-rule="evenodd" clip-rule="evenodd" d="M7.25971 9.01488C5.44898 9.01488 3.98065 7.54263 3.98065 5.72613C3.98065 3.90963 5.44898 2.43738 7.25971 2.43738C9.0697 2.43738 10.538 3.90963 10.538 5.72613C10.5447 7.53588 9.08689 9.00813 7.28289 9.01488H7.25971Z" stroke="#7B6F72" stroke-width="1.2" stroke-linecap="round" stroke-linejoin="round"/>
<path d="M12.412 8.16121C13.6089 7.99246 14.5307 6.96196 14.533 5.71471C14.533 4.48546 13.6396 3.46546 12.4681 3.27271" stroke="#7B6F72" stroke-width="1.2" stroke-linecap="round" stroke-linejoin="round"/>
<path d="M13.9911 11.0492C15.1507 11.2224 15.9604 11.6304 15.9604 12.4704C15.9604 13.0487 15.5791 13.4237 14.9631 13.6584" stroke="#7B6F72" stroke-width="1.2" stroke-linecap="round" stroke-linejoin="round"/>
</svg>
