<svg width="14" height="14" viewBox="0 0 14 14" fill="none" xmlns="http://www.w3.org/2000/svg">
<path d="M6.99999 7.58329C7.32216 7.58329 7.58332 7.32213 7.58332 6.99996C7.58332 6.67779 7.32216 6.41663 6.99999 6.41663C6.67782 6.41663 6.41666 6.67779 6.41666 6.99996C6.41666 7.32213 6.67782 7.58329 6.99999 7.58329Z" fill="#ADA4A5" stroke="#ADA4A5" stroke-width="2" stroke-linecap="round" stroke-linejoin="round"/>
<path d="M6.99999 3.50004C7.32216 3.50004 7.58332 3.23887 7.58332 2.91671C7.58332 2.59454 7.32216 2.33337 6.99999 2.33337C6.67782 2.33337 6.41666 2.59454 6.41666 2.91671C6.41666 3.23887 6.67782 3.50004 6.99999 3.50004Z" fill="#ADA4A5" stroke="#ADA4A5" stroke-width="2" stroke-linecap="round" stroke-linejoin="round"/>
<path d="M6.99999 11.6667C7.32216 11.6667 7.58332 11.4055 7.58332 11.0833C7.58332 10.7612 7.32216 10.5 6.99999 10.5C6.67782 10.5 6.41666 10.7612 6.41666 11.0833C6.41666 11.4055 6.67782 11.6667 6.99999 11.6667Z" fill="#ADA4A5" stroke="#ADA4A5" stroke-width="2" stroke-linecap="round" stroke-linejoin="round"/>
</svg>
