<svg width="18" height="18" viewBox="0 0 18 18" fill="none" xmlns="http://www.w3.org/2000/svg">
<path fill-rule="evenodd" clip-rule="evenodd" d="M7.19363 11.4052C9.96038 11.4052 12.3251 11.8244 12.3251 13.4992C12.3251 15.1739 9.97613 15.6052 7.19363 15.6052C4.42613 15.6052 2.06213 15.1897 2.06213 13.5142C2.06213 11.8387 4.41038 11.4052 7.19363 11.4052Z" stroke="#7B6F72" stroke-width="1.2" stroke-linecap="round" stroke-linejoin="round"/>
<path fill-rule="evenodd" clip-rule="evenodd" d="M7.19361 9.01488C5.37711 9.01488 3.90411 7.54263 3.90411 5.72613C3.90411 3.90963 5.37711 2.43738 7.19361 2.43738C9.00936 2.43738 10.4824 3.90963 10.4824 5.72613C10.4891 7.53588 9.02661 9.00813 7.21686 9.01488H7.19361Z" stroke="#7B6F72" stroke-width="1.2" stroke-linecap="round" stroke-linejoin="round"/>
<path d="M12.3624 8.16121C13.5631 7.99246 14.4879 6.96196 14.4901 5.71471C14.4901 4.48546 13.5939 3.46546 12.4186 3.27271" stroke="#7B6F72" stroke-width="1.2" stroke-linecap="round" stroke-linejoin="round"/>
<path d="M13.9465 11.0492C15.1098 11.2224 15.922 11.6304 15.922 12.4704C15.922 13.0487 15.5395 13.4237 14.9215 13.6584" stroke="#7B6F72" stroke-width="1.2" stroke-linecap="round" stroke-linejoin="round"/>
</svg>
