<svg width="19" height="18" viewBox="0 0 19 18" fill="none" xmlns="http://www.w3.org/2000/svg">
<path fill-rule="evenodd" clip-rule="evenodd" d="M7.25962 11.4051C10.0176 11.4051 12.3748 11.8244 12.3748 13.4991C12.3748 15.1739 10.0333 15.6051 7.25962 15.6051C4.5009 15.6051 2.14441 15.1896 2.14441 13.5141C2.14441 11.8386 4.4852 11.4051 7.25962 11.4051Z" stroke="#7B6F72" stroke-width="1.2" stroke-linecap="round" stroke-linejoin="round"/>
<path fill-rule="evenodd" clip-rule="evenodd" d="M7.25965 9.01486C5.44891 9.01486 3.98059 7.54261 3.98059 5.72611C3.98059 3.90961 5.44891 2.43736 7.25965 2.43736C9.06963 2.43736 10.538 3.90961 10.538 5.72611C10.5447 7.53586 9.08683 9.00811 7.28282 9.01486H7.25965Z" stroke="#7B6F72" stroke-width="1.2" stroke-linecap="round" stroke-linejoin="round"/>
<path d="M12.4119 8.16121C13.6088 7.99246 14.5306 6.96196 14.5329 5.71471C14.5329 4.48546 13.6395 3.46546 12.4679 3.27271" stroke="#7B6F72" stroke-width="1.2" stroke-linecap="round" stroke-linejoin="round"/>
<path d="M13.9911 11.0492C15.1506 11.2224 15.9603 11.6304 15.9603 12.4704C15.9603 13.0487 15.579 13.4237 14.963 13.6584" stroke="#7B6F72" stroke-width="1.2" stroke-linecap="round" stroke-linejoin="round"/>
</svg>
