<svg width="30" height="33" viewBox="0 0 30 33" fill="none" xmlns="http://www.w3.org/2000/svg">
<path d="M14.75 17.8453C15.4231 17.8453 15.9687 17.2641 15.9687 16.5472C15.9687 15.8303 15.4231 15.2491 14.75 15.2491C14.0769 15.2491 13.5312 15.8303 13.5312 16.5472C13.5312 17.2641 14.0769 17.8453 14.75 17.8453Z" stroke="black" stroke-width="2" stroke-linecap="round" stroke-linejoin="round"/>
<path d="M23.2812 17.8453C23.9543 17.8453 24.5 17.2641 24.5 16.5472C24.5 15.8303 23.9543 15.2491 23.2812 15.2491C22.6082 15.2491 22.0625 15.8303 22.0625 16.5472C22.0625 17.2641 22.6082 17.8453 23.2812 17.8453Z" stroke="black" stroke-width="2" stroke-linecap="round" stroke-linejoin="round"/>
<path d="M6.21875 17.8453C6.89185 17.8453 7.4375 17.2641 7.4375 16.5472C7.4375 15.8303 6.89185 15.2491 6.21875 15.2491C5.54565 15.2491 5 15.8303 5 16.5472C5 17.2641 5.54565 17.8453 6.21875 17.8453Z" stroke="black" stroke-width="2" stroke-linecap="round" stroke-linejoin="round"/>
</svg>
