<svg width="364" height="188" viewBox="0 0 364 188" fill="none" xmlns="http://www.w3.org/2000/svg">
<path fill-rule="evenodd" clip-rule="evenodd" d="M148.236 -256L221.486 -19.6895L272.828 154.484H302.103L231.528 -256L148.236 -256Z" fill="#2A84ED"/>
<path fill-rule="evenodd" clip-rule="evenodd" d="M130.133 -256C129.336 -174.917 129.912 -65.7518 128.057 -60.6975C126.82 -57.328 88.3512 -18.9365 12.6503 54.4769L27.7399 85.7606C117.614 15.0975 164.849 -24.9414 169.444 -34.356C176.336 -48.4779 210.963 -178.429 228.978 -256H130.133Z" fill="#27A0F9"/>
<path fill-rule="evenodd" clip-rule="evenodd" d="M-13.897 76.198L12.1732 51.8687L32.5332 81.5182C33.8204 104.157 39.651 129.458 50.0249 157.42L45.2438 162.323L8.40202 108.671L-1.81122 87.8653L-4.20176 90.3168L-13.897 76.198Z" fill="#191847"/>
<path fill-rule="evenodd" clip-rule="evenodd" d="M270.111 187.917L271.635 148.912H303.627C318.797 161.914 338.601 172.439 363.041 180.488V187.917H305.15L285.346 184.202V187.917H270.111Z" fill="#191847"/>
</svg>
