<svg width="126" height="108" viewBox="0 0 126 108" fill="none" xmlns="http://www.w3.org/2000/svg">
<path d="M0.820901 85.6408C2.12186 80.0503 14.8263 80.1501 20.6566 83.6442C16.9786 82.3297 11.0198 77.5212 15.8382 74.2767C18.9059 72.1802 23.5958 73.6943 27.2417 77.854C25.2607 76.021 23.5506 73.8963 22.1664 71.548C19.9499 68.2868 19.4841 62.0141 24.7683 59.4351C29.2333 57.2388 36.0112 59.0025 39.3359 64.3435C41.377 68.0835 42.4814 72.2936 42.5481 76.5894C42.5481 73.661 42.6445 68.0705 48.6032 68.5197C54.819 68.9856 53.3092 76.4896 53.4216 80.2832C53.4216 80.2832 53.1807 69.4016 59.9746 65.3085C61.4961 64.3276 63.2176 63.7281 65.0021 63.5577C66.7866 63.3872 68.5849 63.6506 70.2538 64.3268C72.0811 64.9073 73.6129 66.2123 74.5155 67.9576C75.418 69.7029 75.6181 71.7469 75.0722 73.6444C73.7713 78.1035 68.9689 81.9803 68.9689 81.9803C71.5394 80.6131 74.228 79.4989 76.9996 78.6526C82.4765 77.5378 91.3584 77.2051 94.8758 81.9803C98.3932 86.7556 93.2697 93.5108 83.135 93.8103C76.4374 94.01 19.4841 94.2263 12.7705 94.2263C7.47027 94.2097 -0.528248 91.4809 0.820901 85.6408Z" fill="#0FC7FF"/>
<path d="M125.649 77.671C124.429 71.7476 112.463 71.8308 106.97 75.5412C110.439 74.127 115.996 69.0356 111.531 65.5581C108.656 63.3452 104.239 64.9425 100.802 69.3517C102.706 67.3816 104.328 65.1406 105.621 62.6963C107.693 59.2521 108.11 52.7131 103.131 49.8513C98.9392 47.5053 92.5629 49.3854 89.4149 55.0592C87.4974 59.1114 86.482 63.5578 86.4436 68.0705C86.4436 64.9591 86.3633 59.0192 80.7579 59.5017C74.8955 60.0008 76.3249 67.9707 76.2446 71.9972C76.2446 71.9972 76.4534 60.3502 70.061 56.1573C68.6823 55.1275 67.0677 54.489 65.3773 54.3051C63.6868 54.1213 61.9794 54.3984 60.4243 55.1091C58.6265 55.8938 57.1708 57.3371 56.3353 59.1634C55.4998 60.9896 55.3431 63.0707 55.895 65.009C56.8908 69.6678 61.4843 73.6611 61.4843 73.6611C59.0656 72.2359 56.5152 71.0654 53.8713 70.167C48.7156 69.0023 40.3476 68.6529 37.039 73.711C33.7304 78.7691 38.5006 85.9736 48.0892 86.2897C54.4013 86.4894 108.03 86.739 114.358 86.739C119.385 86.7889 126.918 83.8771 125.649 77.671Z" fill="#0FC7FF"/>
<path d="M68.4711 2.1147C68.4711 2.1147 75.4417 0.184627 77.9472 5.14292C77.4861 6.29969 76.708 7.2912 75.7089 7.99495C74.7099 8.6987 73.5338 9.08387 72.3258 9.10289C72.3258 9.10289 72.8237 3.16293 68.4711 2.1147Z" fill="#069FAD"/>
<path d="M80.6776 63.3943C74.1747 62.6951 68.0081 60.0531 62.928 55.7897C57.848 51.5264 54.0735 45.8254 52.0639 39.3805C50.0542 32.9356 49.8959 26.0245 51.6083 19.4881C53.3208 12.9518 56.83 7.07182 61.7092 2.56372C54.0074 2.93347 46.5548 5.50486 40.177 9.99299C33.7993 14.4811 28.7455 20.7108 25.5756 27.9917C22.4057 35.2726 21.2435 43.3204 22.2177 51.2436C23.1919 59.1668 26.2644 66.6559 31.095 72.8811C35.9255 79.1063 42.3254 83.8246 49.5855 86.5132C56.8457 89.2018 64.6826 89.7558 72.2279 88.1136C79.7733 86.4715 86.7325 82.6974 92.3345 77.2096C97.9365 71.7217 101.962 64.7344 103.966 57.0217C97.2253 62.043 88.9331 64.312 80.6776 63.3943Z" fill="#FFB842"/>
<path d="M52.8594 34.394C51.7696 30.3364 51.4586 26.0968 51.9439 21.9151C52.9397 13.3962 58.2559 5.27659 69.6113 2.9472C69.7268 2.91099 69.828 2.83725 69.8999 2.73687C69.9718 2.6365 70.0106 2.51481 70.0106 2.3898C70.0106 2.2648 69.9718 2.14311 69.8999 2.04274C69.828 1.94236 69.7268 1.86862 69.6113 1.83241C49.2456 -4.54015 29.0405 11.9653 22.6641 27.539C28.9441 38.9697 50.4662 36.5737 52.8594 34.394Z" fill="#478FE6"/>
<path d="M38.7094 44.1775H38.4363C36.8099 44.001 35.235 43.4837 33.8076 42.6571C32.3801 41.8305 31.1298 40.7118 30.1326 39.369C30.0639 39.2793 30.0134 39.1761 29.9841 39.0656C29.9549 38.9551 29.9476 38.8396 29.9626 38.7261C29.9776 38.6127 30.0146 38.5035 30.0715 38.4052C30.1283 38.3069 30.2037 38.2216 30.2933 38.1544C30.4725 38.014 30.698 37.9527 30.9206 37.9839C31.1433 38.0151 31.345 38.1362 31.4818 38.3208C31.4818 38.3208 34.4531 42.2974 38.5006 42.4305C41.0061 42.4305 43.4796 41.0994 45.8406 38.2708C45.9916 38.0976 46.2018 37.992 46.4266 37.9765C46.6515 37.961 46.8733 38.0367 47.0452 38.1876C47.1293 38.2625 47.1982 38.3539 47.2479 38.4566C47.2976 38.5593 47.327 38.6712 47.3345 38.7858C47.342 38.9004 47.3273 39.0154 47.2915 39.1241C47.2556 39.2328 47.1992 39.333 47.1255 39.4189C44.4914 42.5802 41.6647 44.1775 38.7094 44.1775Z" fill="#4F4840"/>
<path d="M39.2558 43.5785H38.2761V48.6366H39.2558V43.5785Z" fill="#4F4840"/>
<path d="M40.4563 43.2667L39.4989 43.4822L40.5358 48.4249L41.4931 48.2094L40.4563 43.2667Z" fill="#4F4840"/>
<path d="M41.8963 42.8436L40.9631 43.1527L42.45 47.9706L43.3832 47.6615L41.8963 42.8436Z" fill="#4F4840"/>
<path d="M43.1435 42.2714L42.2569 42.7032L44.3343 47.2807L45.2209 46.8489L43.1435 42.2714Z" fill="#4F4840"/>
<path d="M44.3222 41.5237L43.4953 42.068L46.1137 46.3373L46.9406 45.793L44.3222 41.5237Z" fill="#4F4840"/>
<path d="M45.445 40.5425L44.6545 41.1421L47.5389 45.2233L48.3294 44.6237L45.445 40.5425Z" fill="#4F4840"/>
<path d="M46.4813 39.6507L45.7412 40.3158L48.9407 44.1367L49.6808 43.4716L46.4813 39.6507Z" fill="#4F4840"/>
<path d="M37.0209 43.2615L35.984 48.2042L36.9414 48.4197L37.9783 43.477L37.0209 43.2615Z" fill="#4F4840"/>
<path d="M35.5862 42.8239L34.0984 47.6415L35.0316 47.9507L36.5193 43.1331L35.5862 42.8239Z" fill="#4F4840"/>
<path d="M34.3472 42.2769L32.2698 46.8544L33.1565 47.2862L35.2339 42.7087L34.3472 42.2769Z" fill="#4F4840"/>
<path d="M33.1512 41.519L30.5349 45.7897L31.3621 46.3335L33.9784 42.0628L33.1512 41.519Z" fill="#4F4840"/>
<path d="M32.0344 40.5619L29.15 44.6431L29.9405 45.2426L32.8249 41.1615L32.0344 40.5619Z" fill="#4F4840"/>
<path d="M31.0042 39.6488L27.8054 43.4702L28.5456 44.1351L31.7444 40.3137L31.0042 39.6488Z" fill="#4F4840"/>
<path d="M70.3985 60.5499C67.3439 63.0103 63.6307 64.4339 59.7659 64.6263C56.1682 64.4932 52.9238 62.0806 50.6913 60.0175C50.246 60.4203 49.7677 60.7821 49.2618 61.099C58.3204 71.9972 69.74 65.3418 73.402 61.7811C72.3512 61.5148 71.3406 61.1005 70.3985 60.5499Z" fill="#4F4840"/>
<path d="M47.8165 62.2969C47.3756 62.2998 46.9368 62.2324 46.5156 62.0972C46.4357 62.0644 46.3629 62.0153 46.3017 61.9529C46.2404 61.8904 46.1919 61.8159 46.159 61.7337C46.126 61.6514 46.1093 61.5632 46.1099 61.4742C46.1104 61.3852 46.1282 61.2972 46.1622 61.2154C46.2266 61.0481 46.3522 60.914 46.5117 60.8423C46.6712 60.7706 46.8515 60.7672 47.0135 60.8327C47.1259 60.8327 49.7921 61.8476 52.0085 57.5882C52.0966 57.4392 52.2364 57.331 52.3992 57.2857C52.5621 57.2404 52.7354 57.2615 52.8837 57.3447C53.0319 57.4279 53.1437 57.5668 53.196 57.7328C53.2484 57.8988 53.2372 58.0793 53.1649 58.2371C51.3821 61.6813 49.1817 62.2969 47.8165 62.2969Z" fill="#4F4840"/>
<path d="M121.409 97.9034C120.076 91.5475 106.858 91.6639 100.802 95.6073C104.625 94.1098 110.76 88.6524 105.846 84.9586C102.633 82.5793 97.815 84.2931 93.9924 89.0184C96.0762 86.9086 97.8558 84.499 99.2766 81.8638C101.573 78.1701 102.023 71.082 96.5301 68.1204C91.9045 65.6246 84.8536 67.6379 81.4004 73.6943C78.0918 79.5012 78.1881 87.6041 78.1881 87.6041C78.1881 84.2764 78.0757 77.9371 71.8921 78.4363C65.4676 78.9687 67.0737 87.5043 66.9292 91.7471C66.9292 91.7471 67.1701 79.3847 60.1031 74.7924C58.5604 73.683 56.7705 72.9986 54.902 72.8036C53.0334 72.6085 51.1477 72.9093 49.4224 73.6777C47.4649 74.4813 45.8685 76.0146 44.9471 77.9759C44.0257 79.9373 43.846 82.1848 44.4434 84.2764C45.664 89.268 50.6591 93.594 50.6591 93.594C47.9895 92.0692 45.1812 90.8208 42.2751 89.867C36.5733 88.6025 27.3541 88.2031 23.6922 93.6439C20.0302 99.0847 25.2983 106.755 35.8988 107.088C42.8533 107.321 102.039 107.57 109.01 107.57C114.519 107.637 122.742 104.542 121.409 97.9034Z" fill="#478FE6"/>
<path d="M74.6548 35.4923L65.0181 36.0247L64.9217 34.1612L71.0089 25.193L65.1305 25.5258L64.9217 23.4626L73.6269 22.9967L73.7233 24.8103L67.62 33.8118L74.5585 33.4457L74.6548 35.4923Z" fill="#4F4840"/>
<path d="M76.9192 30.6837L76.1643 28.737L80.3242 27.0731L81.0791 29.103L76.9192 30.6837Z" fill="#4F4840"/>
<path d="M84.9659 31.1995L84.0665 29.6854L84.7089 22.1647L81.3039 24.361L80.3884 22.8136L86.0581 19.1698L86.9735 20.7005L86.3311 28.1879L90.3785 25.5756L91.3101 27.1397L84.9659 31.1995Z" fill="#4F4840"/>
<path d="M91.583 22.1647L89.9769 20.7837L92.8358 17.223L94.4419 18.604L91.583 22.1647Z" fill="#4F4840"/>
<path d="M98.8909 17.872L97.2848 17.1233L93.9119 10.4346L92.2255 14.2282L90.6194 13.4628L93.4462 7.19006L95.0523 7.95544L98.4733 14.6109L100.465 10.1018L102.071 10.8838L98.8909 17.872Z" fill="#4F4840"/>
<path d="M19.6287 19.6855L16.6092 15.9252L11.9193 16.3578L14.4409 12.2315L12.5939 7.73906L17.1553 8.95367L20.7048 5.74243L21.01 10.6175L25.0574 13.1299L20.6727 14.9269L19.6287 19.6855Z" fill="#FFB842"/>
<path d="M104.143 41.0661L101.718 36.374L96.5945 35.775L100.16 31.9315L99.1162 26.707L103.758 29.0364L108.223 26.3909L107.532 31.6819L111.339 35.2759L106.263 36.2243L104.143 41.0661Z" fill="#FFB842"/>
<path d="M82.2677 51.2821L79.9067 47.9378L75.9075 48.0543L78.2524 44.6933L76.9193 40.7832L80.7258 42.0477L83.8899 39.5187L83.906 43.6783L87.2146 46.0077L83.4081 47.3055L82.2677 51.2821Z" fill="#FFB842"/>
</svg>
